<svg xmlns="http://www.w3.org/2000/svg" viewBox="0 0 10240 10240" width="100" height="100"><rect width="10240" height="10240" rx="1400" fill="#0F1B2A"/><g transform="translate(0,10240) scale(1,-1)" fill="#B08D57"><path d="M2743 7405 c-10 -11 -13 -493 -13 -2335 0 -1999 2 -2323 14 -2336 12 -11 58 -14 239 -14 196 0 226 2 231 16 3 9 6 958 6 2110 l0 2094 1208 0 c1146 0 1402 -5 1457 -29 11 -5 49 -15 85 -22 36 -7 76 -19 90 -26 14 -7 40 -16 58 -19 17 -3 32 -10 32 -14 0 -4 18 -13 40 -20 22 -7 40 -16 40 -20 0 -3 16 -12 35 -20 19 -7 36 -19 39 -27 3 -7 11 -13 17 -13 16 0 26 -9 131 -114 99 -101 118 -122 118 -136 0 -6 7 -13 15 -16 8 -4 13 -10 10 -14 -3 -4 2 -13 10 -20 8 -7 15 -19 15 -26 0 -8 5 -14 11 -14 5 0 7 -4 4 -10 -3 -5 -2 -10 4 -10 6 0 13 -16 17 -35 3 -19 10 -35 14 -35 5 0 14 -26 20 -57 7 -32 17 -61 23 -65 15 -9 15 -291 0 -310 -5 -7 -16 -41 -23 -75 -7 -35 -16 -63 -21 -63 -4 0 -11 -15 -15 -34 -3 -19 -12 -37 -19 -39 -7 -3 -16 -18 -19 -33 -4 -16 -16 -34 -27 -42 -10 -7 -19 -18 -19 -23 0 -6 -16 -25 -35 -43 -19 -19 -35 -38 -35 -43 0 -12 -40 -48 -62 -56 -10 -4 -18 -10 -18 -15 0 -5 -24 -24 -52 -42 -29 -19 -55 -36 -58 -39 -6 -7 -53 -34 -90 -53 -14 -7 -28 -16 -31 -21 -3 -5 -8 -8 -10 -7 -7 2 -42 -10 -72 -26 -16 -8 -33 -12 -38 -8 -5 3 -9 1 -9 -4 0 -5 -21 -12 -46 -16 -26 -3 -53 -11 -59 -16 -7 -6 -53 -16 -101 -22 -49 -7 -92 -17 -96 -22 -5 -8 -204 -13 -620 -16 l-612 -5 226 -226 c125 -125 234 -229 242 -232 9 -4 16 -11 16 -16 0 -11 88 -101 98 -101 4 0 162 -155 352 -345 190 -190 348 -345 352 -345 4 0 162 -154 350 -343 189 -189 351 -346 361 -350 9 -3 17 -12 17 -18 0 -13 45 -59 74 -74 10 -5 18 -13 17 -17 -2 -11 32 -43 52 -51 9 -3 17 -13 17 -22 0 -8 6 -15 13 -15 7 0 64 -52 127 -115 l113 -115 429 0 c279 0 428 3 428 10 0 6 -7 10 -15 10 -7 0 -18 6 -22 13 -4 6 -21 19 -38 27 -16 8 -34 21 -38 27 -4 7 -15 13 -22 13 -8 0 -15 3 -15 8 0 8 -57 42 -66 39 -3 -1 -10 6 -15 16 -6 9 -15 17 -21 17 -6 0 -24 14 -40 30 -15 17 -31 30 -34 30 -8 0 -88 64 -97 78 -4 6 -13 12 -19 12 -6 0 -18 6 -27 14 -87 79 -119 106 -127 106 -5 0 -25 18 -44 40 -19 22 -39 40 -44 40 -15 0 -390 352 -836 787 -462 449 -630 615 -630 622 0 4 61 13 136 19 75 6 142 16 148 21 6 5 48 15 94 22 45 7 82 16 82 19 0 3 19 12 43 19 66 21 254 116 269 137 4 6 8 6 8 2 0 -8 80 48 111 78 9 8 20 15 25 15 12 0 254 242 254 254 0 5 11 24 25 42 14 18 25 37 25 42 0 6 6 12 13 15 7 3 19 23 27 46 7 23 16 41 20 41 4 0 13 18 20 40 7 22 17 40 21 40 5 0 11 16 15 35 3 19 10 35 15 35 5 0 6 6 3 14 -3 8 -1 17 5 20 6 4 13 29 17 57 4 27 10 52 14 54 5 3 6 14 3 25 -3 11 1 27 8 36 19 23 19 375 0 398 -7 9 -11 27 -9 41 3 14 2 25 -3 25 -4 0 -10 19 -14 43 -4 23 -11 47 -16 53 -6 7 -9 16 -8 20 1 5 -3 22 -9 37 -7 16 -12 33 -12 38 0 5 -4 9 -9 9 -5 0 -12 15 -16 33 -4 17 -13 42 -21 55 -8 12 -11 22 -7 22 5 0 0 5 -9 11 -10 5 -18 17 -18 24 0 8 -4 15 -8 15 -5 0 -14 16 -22 35 -8 19 -17 35 -22 35 -4 0 -8 5 -8 11 0 6 -14 28 -31 48 -17 20 -45 53 -62 74 -59 71 -124 137 -135 137 -6 0 -17 8 -24 18 -17 22 -84 72 -97 72 -5 0 -14 7 -19 16 -10 17 -24 26 -129 79 -40 20 -73 40 -73 45 0 5 -15 12 -32 15 -18 4 -46 15 -63 25 -16 10 -47 21 -67 25 -21 4 -38 11 -38 15 0 4 -28 13 -62 20 -35 6 -67 15 -73 20 -5 4 -50 13 -100 20 -49 7 -95 16 -100 21 -6 4 -75 11 -153 15 -78 4 -142 11 -142 15 0 5 -633 9 -1407 9 -1203 -1 -1410 -3 -1420 -15z"/></g></svg>
